<svg height='100px' width='100px'  fill="#FFEECB" xmlns="http://www.w3.org/2000/svg" xmlns:xlink="http://www.w3.org/1999/xlink" version="1.1" x="0px" y="0px" viewBox="0 0 32 32" enable-background="new 0 0 32 32" xml:space="preserve"><g display="none"><rect x="-204.5" y="-124.5" display="inline" fill="#1A1A1A" width="402" height="205.25"></rect></g><g display="none"><path display="inline" fill="#1A1A1A" stroke="#1A1A1A" stroke-miterlimit="10" d="M4.311,28.282l0,3.218h23.378V6.98L21.218,0.5   H4.311v12.575"></path><g display="inline"><text transform="matrix(1 0 0 1 -1.068115e-04 25.1327)" fill="#1A1A1A" font-family="'Bebas'" font-size="10px">DB</text></g></g><g display="none"><g display="inline"><polygon points="3.721,0 3.721,13.169 5.721,13.169 5.721,2 20.62,2 26.28,7.684 26.28,30 5.721,30 5.72,27.886 3.72,27.886     3.721,32 28.28,32 28.28,6.857 21.45,0   "></polygon><path d="M4.062,24.508c0.412-0.417,0.617-0.919,0.617-1.506v-4.651c0-0.583-0.204-1.082-0.614-1.499    c-0.409-0.417-0.907-0.625-1.495-0.625H0.461v8.906H2.57C3.153,25.133,3.65,24.925,4.062,24.508z M1.804,17.598h0.81    c0.208,0,0.387,0.075,0.536,0.227c0.149,0.152,0.224,0.334,0.224,0.547v4.659c0,0.209-0.073,0.39-0.22,0.544    c-0.146,0.153-0.327,0.23-0.54,0.23h-0.81V17.598z"></path><path d="M10.213,18.691c0-0.365-0.043-0.68-0.128-0.945c-0.156-0.497-0.417-0.863-0.781-1.101    c-0.427-0.279-0.904-0.419-1.435-0.419H5.858v8.906h2.486c0.336,0,0.675-0.104,1.016-0.312c0.303-0.185,0.537-0.431,0.703-0.738    c0.213-0.394,0.319-0.871,0.319-1.435c0-0.228-0.017-0.434-0.05-0.618c-0.066-0.36-0.168-0.653-0.305-0.881    c-0.209-0.336-0.462-0.562-0.761-0.675c0.181-0.08,0.337-0.196,0.469-0.348C10.054,19.766,10.213,19.288,10.213,18.691z     M7.308,17.59h0.562c0.265,0,0.48,0.088,0.646,0.263c0.181,0.189,0.271,0.469,0.271,0.839c0,0.223-0.026,0.409-0.078,0.561    c-0.143,0.407-0.422,0.611-0.838,0.611H7.308V17.59z M8.813,23.102c-0.175,0.469-0.49,0.703-0.944,0.703H7.308v-2.656h0.562    c0.331,0,0.582,0.104,0.753,0.312c0.188,0.228,0.283,0.59,0.283,1.087C8.905,22.756,8.875,22.94,8.813,23.102z"></path></g></g><g display="none"><g display="inline"><g><path d="M4.68,23.002c0,0.587-0.205,1.089-0.617,1.506c-0.412,0.417-0.909,0.625-1.492,0.625H0.461v-8.906H2.57     c0.588,0,1.086,0.208,1.495,0.625c0.41,0.417,0.614,0.916,0.614,1.499V23.002z M1.804,23.805h0.81c0.213,0,0.394-0.077,0.54-0.23     c0.146-0.154,0.22-0.335,0.22-0.544v-4.659c0-0.213-0.074-0.395-0.224-0.547C3,17.673,2.821,17.598,2.613,17.598h-0.81V23.805z"></path><path d="M5.858,25.133v-8.906h2.011c0.53,0,1.008,0.14,1.435,0.419c0.364,0.237,0.625,0.604,0.781,1.101     c0.085,0.266,0.128,0.58,0.128,0.945c0,0.597-0.159,1.074-0.477,1.435c-0.132,0.151-0.288,0.268-0.469,0.348     c0.299,0.113,0.552,0.339,0.761,0.675c0.137,0.228,0.238,0.521,0.305,0.881c0.033,0.185,0.05,0.391,0.05,0.618     c0,0.563-0.106,1.041-0.319,1.435c-0.166,0.308-0.4,0.554-0.703,0.738c-0.341,0.208-0.68,0.312-1.016,0.312H5.858z M7.308,19.863     h0.562c0.416,0,0.695-0.204,0.838-0.611c0.052-0.151,0.078-0.338,0.078-0.561c0-0.37-0.09-0.649-0.271-0.839     C8.35,17.678,8.134,17.59,7.869,17.59H7.308V19.863z M7.308,23.805h0.562c0.454,0,0.77-0.234,0.944-0.703     c0.062-0.161,0.092-0.346,0.092-0.554c0-0.497-0.095-0.859-0.283-1.087c-0.171-0.208-0.422-0.312-0.753-0.312H7.308V23.805z"></path></g></g><g display="inline"><polygon points="21.45,0 3.72,0 3.72,13.169 4.72,13.169 4.72,13.169 4.72,13.173 13.667,13.173 13.667,27.882 4.72,27.882     4.72,27.886 3.72,27.886 3.72,32 28.28,32 28.28,6.857   "></polygon></g></g><g><g><polygon points="4.061,0.25 4.061,13.075 4.561,13.075 4.561,0.75 21.115,0.75 27.439,7.083 27.439,31.25 4.561,31.25     4.561,28.282 4.061,28.282 4.061,31.75 27.939,31.75 27.939,6.876 21.322,0.25   "></polygon><path d="M4.062,24.508c0.412-0.417,0.617-0.919,0.617-1.506v-4.651c0-0.583-0.204-1.082-0.614-1.499    c-0.409-0.417-0.907-0.625-1.495-0.625H0.461v8.906H2.57C3.153,25.133,3.65,24.925,4.062,24.508z M1.804,17.598h0.81    c0.208,0,0.387,0.075,0.536,0.227c0.149,0.152,0.224,0.334,0.224,0.547v4.659c0,0.209-0.073,0.39-0.22,0.544    c-0.146,0.153-0.327,0.23-0.54,0.23h-0.81V17.598z"></path><path d="M10.213,18.691c0-0.365-0.043-0.68-0.128-0.945c-0.156-0.497-0.417-0.863-0.781-1.101    c-0.427-0.279-0.904-0.419-1.435-0.419H5.858v8.906h2.486c0.336,0,0.675-0.104,1.016-0.312c0.303-0.185,0.537-0.431,0.703-0.738    c0.213-0.394,0.319-0.871,0.319-1.435c0-0.228-0.017-0.434-0.05-0.618c-0.066-0.36-0.168-0.653-0.305-0.881    c-0.209-0.336-0.462-0.562-0.761-0.675c0.181-0.08,0.337-0.196,0.469-0.348C10.054,19.766,10.213,19.288,10.213,18.691z     M7.308,17.59h0.562c0.265,0,0.48,0.088,0.646,0.263c0.181,0.189,0.271,0.469,0.271,0.839c0,0.223-0.026,0.409-0.078,0.561    c-0.143,0.407-0.422,0.611-0.838,0.611H7.308V17.59z M8.813,23.102c-0.175,0.469-0.49,0.703-0.944,0.703H7.308v-2.656h0.562    c0.331,0,0.582,0.104,0.753,0.312c0.188,0.228,0.283,0.59,0.283,1.087C8.905,22.756,8.875,22.94,8.813,23.102z"></path></g></g><g display="none"><path display="inline" fill="#1A1A1A" stroke="#1A1A1A" stroke-miterlimit="10" d="M4.311,28.282l0,3.218h23.378V6.98L21.218,0.5   H4.311v12.575"></path><g display="inline"><text transform="matrix(1 0 0 1 -1.068115e-04 25.1327)" fill="#1A1A1A" font-family="'Bebas'" font-size="10px">DB</text></g></g></svg>